<?xml version="1.0" encoding="utf-8"?>
<!-- Generator: Adobe Illustrator 19.0.0, SVG Export Plug-In . SVG Version: 6.00 Build 0)  -->
<svg version="1.1" id="Capa_1" xmlns="http://www.w3.org/2000/svg" xmlns:xlink="http://www.w3.org/1999/xlink" x="0px" y="0px"
	 viewBox="-223 25 512 512" style="enable-background:new -223 25 512 512;" xml:space="preserve">
<style type="text/css">
	.st0{fill:#A5A5A5;}
</style>
<g>
	<g>
		<g>
			<path class="st0" d="M-5.6,176.8h73.2c21.2-12.5,35.4-35.6,35.4-62c0-39.8-32.2-72-72-72c-39.8,0-72,32.2-72,72
				C-41,141.1-26.8,164.2-5.6,176.8z"/>
		</g>
		<g>
			<path class="st0" d="M279.9,241.5c-9.1-3.9-18.3-7.8-27.4-11.7l-10.4-4.5c-11.3-20.7-27.8-39.8-48.1-55.6v-63.4
				c0-8.3-6.7-15-15-15c-17.3,0-33.4,5.8-46.3,15.9c0.2,2.5,0.3,5,0.3,7.6c0,25.8-9.9,50.4-27,69c1.9,2.5,3,5.6,3,9
				c0,8.3-6.7,15-15,15H-32c-8.3,0-15-6.7-15-15c0-3.4,1.1-6.5,3-9c-10.6-11.5-18.4-25.4-22.8-40.4c-16,7.4-31,16.4-44.5,27.1
				c-33,26-54.4,59-62.1,95c-12-6.6-19.6-19.1-19.6-33.3c0-6.4,1.7-12.8,4.8-18.5c4-7.2,1.4-16.4-5.8-20.4c-7.2-4-16.4-1.4-20.4,5.8
				c-5.6,10.1-8.6,21.5-8.6,33c0,29.5,18.6,55.2,46.4,64.5c0.3,52,28.7,100.4,78.1,133.6c6,25.8,11.9,51.5,17.9,77.3
				c1.6,6.8,7.6,11.6,14.6,11.6h49c7,0,13-4.8,14.6-11.6l9-38.7c23.5,3.1,47.8,3,71.2-0.1c3,12.9,6,25.8,9,38.7
				c1.6,6.8,7.6,11.6,14.6,11.6h49c7,0,13-4.8,14.6-11.6l5.4-23.1c4.2-18.2,8.4-36.4,12.7-54.7c25.5-17.3,45.7-39.1,59.1-63.6
				l11.4-4.9c8.8-3.8,17.6-7.6,26.4-11.3c5.5-2.4,9.1-7.8,9.1-13.8v-81C289,249.2,285.4,243.8,279.9,241.5L279.9,241.5z M159,277.3
				c-8.3,0-15-6.7-15-15c0-8.3,6.7-15,15-15s15,6.7,15,15C174,270.5,167.3,277.3,159,277.3z"/>
		</g>
	</g>
</g>
</svg>
