<?xml version="1.0" encoding="utf-8"?>
<!-- Generator: Adobe Illustrator 19.0.0, SVG Export Plug-In . SVG Version: 6.00 Build 0)  -->
<svg version="1.1" id="Capa_1" xmlns="http://www.w3.org/2000/svg" xmlns:xlink="http://www.w3.org/1999/xlink" x="0px" y="0px"
	 viewBox="-236 39 485 485" style="enable-background:new -236 39 485 485;" xml:space="preserve">
<style type="text/css">
	.st0{fill:#454545;}
</style>
<g>
	<g>
		<path class="st0" d="M-64.5,503.7V265.8L-230.8,73.2c-8.9-10.9-7.9-33.3,15.1-33.3h443.6c21.6,0,26.6,19.8,15.1,33.3L80.7,260.7
			v147.2c0,6-2,11.1-7.1,15.1l-103.8,95.8C-42.2,527.7-64.5,522.9-64.5,503.7z M-171.3,80.3l142.2,164.3c3,4,5,8.1,5,13.1v200.6
			l64.5-58.5V253.7c0-5,2-9.1,5-13.1L183.5,80.3L-171.3,80.3L-171.3,80.3z"/>
	</g>
</g>
</svg>
