<?xml version="1.0" encoding="utf-8"?>
<!-- Generator: Adobe Illustrator 19.0.0, SVG Export Plug-In . SVG Version: 6.00 Build 0)  -->
<svg version="1.1" id="Layer_1" xmlns="http://www.w3.org/2000/svg" xmlns:xlink="http://www.w3.org/1999/xlink" x="0px" y="0px"
	 viewBox="-223 25 512 512" style="enable-background:new -223 25 512 512;" xml:space="preserve">
<style type="text/css">
	.st0{fill:#A5A5A5;}
</style>
<g>
	<g>
		<g>
			<path class="st0" d="M246.4,122.8h-426.7c-23.5,0-42.6,19.1-42.6,42.6V178h512v-12.6C289,141.9,269.9,122.8,246.4,122.8z"/>
		</g>
	</g>
	<g>
		<g>
			<path class="st0" d="M-223,228.1v168.5c0,23.5,19.1,42.6,42.6,42.6h426.7c23.5,0,42.6-19.1,42.6-42.6V228.1H-223z M-71.6,369.1
				h-88.5v-33.4h88.5C-71.6,335.7-71.6,369.1-71.6,369.1z M215.6,396c-9.1,0-17.3-3.9-23-10c-5.8,6.2-14,10-23,10
				c-17.4,0-31.5-14.1-31.5-31.5s14.1-31.5,31.5-31.5c9.1,0,17.3,3.9,23,10c5.8-6.2,14-10,23-10c17.4,0,31.5,14.1,31.5,31.5
				S233,396,215.6,396z"/>
		</g>
	</g>
</g>
</svg>
